<svg width="368" height="67" viewBox="0 0 368 67" fill="none" xmlns="http://www.w3.org/2000/svg">
<path d="M88.2165 35.5164H101.105V51.6111C97.6051 52.8094 93.7584 53.4085 89.5645 53.4085C84.9621 53.4085 81.4014 52.0741 78.8823 49.4052C76.3769 46.7364 75.1242 42.9306 75.1242 37.9878C75.1242 33.1675 76.4995 29.4162 79.25 26.7337C82.0005 24.0512 85.854 22.71 90.8104 22.71C92.6895 22.71 94.4597 22.887 96.1209 23.2411C97.7957 23.5951 99.2527 24.0444 100.492 24.5891L97.9387 30.9208C95.7873 29.8587 93.4248 29.3277 90.8513 29.3277C88.4956 29.3277 86.671 30.097 85.3774 31.6357C84.0975 33.1607 83.4575 35.3462 83.4575 38.192C83.4575 40.9834 84.0362 43.1144 85.1936 44.585C86.3646 46.0419 88.0463 46.7704 90.2385 46.7704C91.4368 46.7704 92.5397 46.6547 93.5474 46.4232V41.7459H88.2165V35.5164ZM131.952 23.1389V41.1128C131.952 45.0207 130.842 48.0504 128.622 50.2018C126.417 52.3396 123.23 53.4085 119.064 53.4085C114.992 53.4085 111.861 52.3668 109.668 50.2835C107.49 48.2002 106.4 45.2045 106.4 41.2966V23.1389H114.509V40.6634C114.509 42.774 114.904 44.3058 115.694 45.259C116.483 46.2122 117.648 46.6887 119.186 46.6887C120.834 46.6887 122.025 46.219 122.761 45.2794C123.509 44.3263 123.884 42.774 123.884 40.6226V23.1389H131.952ZM137.595 53V23.1389H145.703V53H137.595ZM159.496 53H151.551V23.1389H169.198V29.6136H159.496V35.3121H168.442V41.7868H159.496V53ZM191.793 53L190.323 47.4036H180.621L179.109 53H170.245L179.988 23.0164H190.751L200.617 53H191.793ZM188.648 40.786L187.361 35.884C187.061 34.7947 186.694 33.3854 186.258 31.6561C185.836 29.9268 185.557 28.6877 185.421 27.9388C185.298 28.6332 185.053 29.777 184.685 31.3701C184.331 32.9633 183.535 36.1019 182.296 40.786H188.648ZM211.182 53H203.237V23.1389H220.884V29.6136H211.182V35.3121H220.128V41.7868H211.182V53ZM233.104 53H225.158V23.1389H242.805V29.6136H233.104V35.3121H242.05V41.7868H233.104V53ZM247.08 53V23.1389H255.188V53H247.08ZM289.467 53H278.887L267.98 31.9625H267.796C268.055 35.2713 268.184 37.7971 268.184 39.5401V53H261.036V23.1389H271.575L282.441 43.8905H282.563C282.373 40.8813 282.277 38.4643 282.277 36.6397V23.1389H289.467V53ZM295.294 53V23.1389H303.402V53H295.294ZM322.424 53H314.356V29.7361H307.064V23.1389H329.695V29.7361H322.424V53ZM343.998 34.2092L349.145 23.1389H357.887L348.062 41.3374V53H339.933V41.5825L330.109 23.1389H338.892L343.998 34.2092Z" fill="white"/>
<path d="M31.0569 60.7299L53.1414 38.6455" stroke="#C850C0" stroke-width="6"/>
<path d="M57.19 19.9399L45.8132 31.3168" stroke="#FF6666" stroke-width="6"/>
<path d="M57.7009 27.1436L49.6702 35.1743" stroke="#FF6666" stroke-width="6"/>
<path d="M58.8809 33.6768L53.5271 39.0307" stroke="#FF6666" stroke-width="6"/>
<path d="M4.92847 38.3896L31.2842 64.7454" stroke="#00CCFF" stroke-width="6"/>
<path d="M36.4614 3L53.1748 19.7135" stroke="#FFF35C" stroke-width="6"/>
<path d="M36.4613 7.24219L3 40.7035" stroke="#00FF99" stroke-width="6"/>
<path d="M36.4613 7.24219L3 40.7035" stroke="#00FF99" stroke-width="6"/>
</svg>
