<svg width="36" height="31" viewBox="0 0 36 31" fill="none" xmlns="http://www.w3.org/2000/svg">
<path d="M19.7999 19.5068L19.129 20.8484L20.3214 21.4445L21.0534 20.3305L19.7999 19.5068ZM32.7688 1.70284C32.6009 0.891597 31.8072 0.370018 30.996 0.53786L17.7759 3.27304C16.9647 3.44088 16.4431 4.23459 16.611 5.04584C16.7788 5.85708 17.5725 6.37866 18.3838 6.21082L30.1349 3.77955L32.5662 15.5307C32.734 16.3419 33.5277 16.8635 34.3389 16.6957C35.1502 16.5278 35.6718 15.7341 35.5039 14.9229L32.7688 1.70284ZM10.7999 15.0068L11.4707 13.6652L10.2767 13.0682L9.54519 14.1848L10.7999 15.0068ZM21.0534 20.3305L32.5534 2.83052L30.0463 1.18298L18.5463 18.683L21.0534 20.3305ZM2.55472 30.3284L12.0546 15.8289L9.54519 14.1848L0.0453429 28.6843L2.55472 30.3284ZM10.1291 16.3484L19.129 20.8484L20.4707 18.1651L11.4707 13.6652L10.1291 16.3484Z" fill="#00CCFF"/>
</svg>
